<svg xmlns="http://www.w3.org/2000/svg" viewBox="0 0 1400 1400" width="1400" height="1400"><g transform="translate(170.0 106.0) rotate(0.0 414.0 428.0) scale(0.9971122281123027 0.9967732957913111)"><svg width="830.398" height="858.771" viewBox="0 0 830.398 858.771"><path d="M793.933 857.767 32.005 845.809c-15.806-.248-28.618-16.11-28.682-35.429L1 113.079C.936 93.795 13.626 76.921 29.41 75.381L790.206 1.155c19.609-1.913 35.656 14.062 35.752 35.692l3.44 782.232c.094 21.675-15.825 38.996-35.465 38.688z" fill="#fff"/><path d="M794.445 858.771c-.176 0-.351-.001-.527-.004L31.99 846.808c-16.292-.256-29.6-16.596-29.666-36.426L0 113.082c-.066-19.754 13.084-37.113 29.313-38.697L790.108.16c9.169-.895 17.972 2.001 24.784 8.154 7.617 6.88 12.015 17.279 12.064 28.529l3.44 782.232c.05 11.298-4.274 22.081-11.863 29.585-6.605 6.532-15.142 10.11-24.088 10.111zm-1.087-856.77c-1.012 0-2.031.049-3.055.149L29.507 76.376C14.277 77.862 1.938 94.325 2 113.076l2.323 697.3c.062 18.748 12.488 34.194 27.698 34.433l761.928 11.958c8.597.136 16.828-3.249 23.179-9.529 7.209-7.128 11.317-17.39 11.27-28.154l-3.44-782.232c-.047-10.689-4.204-20.55-11.405-27.054-5.629-5.084-12.708-7.797-20.195-7.797z" fill="#172635"/><path d="M37.915 106.307c-.018 6.118-4.085 11.409-9.077 11.818-4.985.408-9.006-4.208-8.988-10.309S23.918 96.425 28.903 96c4.992-.425 9.03 4.189 9.012 10.307z" fill="#172635"/><path d="M67.603 103.827c-.018 6.144-4.12 11.46-9.156 11.872-5.028.412-9.085-4.223-9.067-10.351s4.103-11.442 9.131-11.87c5.037-.428 9.11 4.205 9.092 10.349z" fill="#e6e6e6"/><path d="M97.552 101.326c-.018 6.171-4.156 11.512-9.236 11.928-5.072.415-9.165-4.238-9.147-10.393s4.139-11.494 9.211-11.926c5.081-.431 9.19 4.22 9.172 10.391z" fill="#3B114D"/><path d="M1.076 137.096a.999.999 0 0 1-.077-1.997l825.028-65.642a1 1 0 1 1 .159 1.993L1.156 137.093a1.09 1.09 0 0 1-.08.003z" fill="#172635"/></svg></g><g transform="translate(253.0 225.0) rotate(0.0 424.5 433.0) scale(0.9974658024312788 0.9968907598817084)"><svg width="851.157" height="868.701" viewBox="0 0 851.157 868.701"><path d="M814.71 868.683 32.752 843.375c-16.198-.524-29.329-16.805-29.396-36.365L.92 101.002C.852 81.478 13.855 64.595 30.031 63.287L810.803.111c20.152-1.631 36.648 14.82 36.747 36.753l3.606 793.206c.1 21.98-16.26 39.266-36.446 38.613z" fill="#DDD5E1"/><path d="M38.749 94.734c-.018 6.194-4.185 11.486-9.301 11.821-5.109.334-9.23-4.404-9.212-10.581s4.168-11.468 9.277-11.819c5.115-.351 9.254 4.385 9.236 10.579z" fill="#172635"/><path d="M69.178 92.696c-.018 6.221-4.222 11.538-9.383 11.876-5.154.337-9.312-4.42-9.294-10.625.018-6.204 4.204-11.52 9.358-11.874 5.161-.354 9.337 4.402 9.319 10.623z" fill="#fff"/><path d="M99.876 90.64c-.018 6.249-4.259 11.591-9.466 11.931-5.199.34-9.394-4.437-9.377-10.669.018-6.232 4.241-11.572 9.441-11.929 5.207-.358 9.42 4.418 9.402 10.667z" fill="#3B114D"/><path d="M.999 125.307a1 1 0 0 1-.062-1.998l846.705-53.365a1 1 0 1 1 .126 1.996L1.063 125.305l-.064.002z" fill="#172635"/></svg></g><g transform="translate(114.0 457.0) rotate(0.0 53.5 388.5) scale(0.9967767778957762 0.9997053635415044)"><svg width="107.346" height="777.229" viewBox="0 0 107.346 777.229"><path d="m83.235 777.188-61.909-4.138C9.489 772.259-.043 759.769 0 745.151L2.09 30.426c.043-14.61 9.644-26.908 21.482-27.469L85.484.02c12.099-.574 21.905 10.989 21.862 25.828l-2.094 725.923c-.043 14.847-9.918 26.226-22.017 25.417z" fill="#3B114D"/><g fill="#fff"><path d="m82.026 358.929-56.878-.303.203-69.699 56.879-.284z"/><path d="M82.026 360.929h-.011l-56.878-.303a2 2 0 0 1-1.989-2.006l.203-69.699a2 2 0 0 1 1.99-1.994l56.879-.285a2 2 0 0 1 2.01 2.006l-.203 70.287a2 2 0 0 1-2.001 1.994zm-54.872-4.292 52.878.282.192-66.266-52.879.265zm46.144-125.056h-.006a2 2 0 0 1-1.994-2.006l.203-70.186a2 2 0 0 1 4 .012l-.203 70.186a2 2 0 0 1-2 1.994zm-38.755.532h-.006a2 2 0 0 1-1.994-2.006l.203-69.785a2 2 0 0 1 4 .012l-.203 69.785a2 2 0 0 1-2 1.994z"/><path d="M25.808 174.406a2 2 0 0 1-.044-3.999l56.688-1.263a1.984 1.984 0 0 1 2.044 1.955 2 2 0 0 1-1.955 2.044l-56.688 1.263h-.045zm.056 45.961a2 2 0 0 1-.03-4l56.691-.877a2 2 0 0 1 .062 4l-56.691.877h-.032zm25.373 398.241-.088-.002-7.418-.322a2 2 0 0 1-1.911-2.085 1.995 1.995 0 0 1 2.085-1.911l7.418.322a2 2 0 0 1-.086 3.998zm28.717-58.444a2 2 0 0 1-1.863-1.272l-3.72-9.514-45.743-1.514-3.672 9.079a2 2 0 0 1-3.708-1.5l4.196-10.374a2.006 2.006 0 0 1 1.92-1.249l48.457 1.603a1.998 1.998 0 0 1 1.796 1.271l4.2 10.74a2 2 0 0 1-1.863 2.73z"/><path d="M51.236 618.608h-.006a2 2 0 0 1-1.994-2.006l.203-69.99a2 2 0 0 1 2-1.994h.006a2 2 0 0 1 1.994 2.006l-.203 69.99a2.001 2.001 0 0 1-2 1.994z"/><path d="m58.672 618.931-.088-.002-7.435-.323a2 2 0 0 1-1.911-2.085 1.996 1.996 0 0 1 2.085-1.911l7.435.323a2 2 0 0 1-.086 3.998zm22.452 93.344c.056-19.415-12.714-35.822-28.457-36.643-15.67-.817-28.366 14.131-28.422 33.383-.032 10.967 4.043 20.993 10.443 27.781l-.002.002-7.233 7.284 26.613 1.663-.025-.057c15.016-.073 27.028-14.652 27.083-33.413z"/><path d="M54.058 747.745c-.039 0-.077-.001-.116-.004l-26.613-1.663a2.002 2.002 0 0 1-1.295-3.405l5.908-5.949c-6.213-7.338-9.727-17.323-9.697-27.714.032-11.09 4.099-21.282 11.157-27.962 5.439-5.148 12.314-7.78 19.369-7.412 16.796.876 30.412 18.212 30.353 38.646-.057 19.575-12.57 35.012-28.58 35.4-.157.041-.32.063-.486.063zm-22.078-5.383 21.723 1.357c.107-.02.217-.03.328-.031 14.02-.068 25.042-13.869 25.092-31.418.053-18.334-11.862-33.873-26.562-34.64-6.031-.313-11.708 1.872-16.41 6.323-6.267 5.931-9.878 15.069-9.907 25.069-.029 10.077 3.578 19.701 9.898 26.404a1.998 1.998 0 0 1-.055 2.8zM26.278 32.166s19.469 69.043 20.182 69.02l9.636-33.339 26.867-12.391z"/><path d="M46.407 103.186c-1.538 0-1.873-1.053-2.924-4.353a466.39 466.39 0 0 1-2.394-7.852c-1.705-5.73-4.03-13.719-6.91-23.745-4.901-17.065-9.777-34.355-9.826-34.528a2 2 0 0 1 2.685-2.393l56.685 23.29a2 2 0 0 1 .078 3.666L57.763 69.28l-9.382 32.461a2.002 2.002 0 0 1-1.856 1.444l-.118.001zM29.32 35.577c5.798 20.516 13.454 47.274 16.996 58.906l7.859-27.193a2 2 0 0 1 1.084-1.261l22.7-10.469zm-4.228 381.747 11.794 49.238 9.397 11.836 17.232.405 11.025-13.246-.145-21.024-9.475-11.837z"/><path d="m63.515 480.803-.047-.001-17.232-.405a2.002 2.002 0 0 1-1.52-.756l-9.397-11.835a2.01 2.01 0 0 1-.379-.778L23.147 417.79a2 2 0 0 1 2.665-2.332L65.64 430.83c.33.127.62.34.841.616l9.475 11.837a2 2 0 0 1 .439 1.236l.144 21.024c.003.472-.161.93-.463 1.293l-11.024 13.246a2 2 0 0 1-1.537.721zm-16.249-4.382 15.33.36 9.939-11.941-.135-19.599-8.704-10.873-35.772-13.807 10.803 45.105z"/><path d="m70.958 488.154-7.443-9.351 10.826-13.007 7.472 9.358z"/><path d="M70.958 490.154h-.023a2 2 0 0 1-1.541-.754l-7.443-9.351a2 2 0 0 1 .027-2.525l10.825-13.007a2.001 2.001 0 0 1 3.101.032l7.472 9.358a2 2 0 0 1-.028 2.53l-10.855 13c-.38.454-.942.717-1.535.717zm-4.864-11.323 4.902 6.158 8.236-9.863-4.923-6.165z"/></g><path d="M58.987 449.584c2.287 2.866 2.274 7.443-.03 10.219-2.302 2.775-6.018 2.698-8.3-.168-2.28-2.864-2.267-7.432.03-10.206 2.298-2.777 6.014-2.709 8.3.155z" fill="#3B114D"/><path d="M50.688 451.429c-.588 0-1.17-.258-1.565-.753l-27.944-35.051a2 2 0 1 1 3.128-2.494l27.944 35.051a2.002 2.002 0 0 1-1.563 3.247z" fill="#3B114D"/></svg></g><g transform="translate(309.0 813.0) rotate(0.0 241.0 194.5) scale(0.9991749551200461 0.9986111859855573)"><svg width="482.398" height="389.541" viewBox="0 0 482.398 389.541"><path d="M481.363 389.541 0 361.953 1.032 0l481.366 2.376z" fill="#172635"/><path d="m427.21 346.161-37.293-1.933.052-19.513 37.294 1.833zm-288.387-14.946-90.607-4.695.053-18.6 90.607 4.453z" fill="#fff"/><path d="m337.993 285.381-80.862-3.565.053-19.157 80.862 3.348z" fill="#DDD5E1"/><g fill="#fff"><path d="m411.103 231.884-170.528-6.196.053-19.111 170.528 5.739zm-213.938-7.773-45.805-1.664.053-18.873 45.805 1.541zm46.955-53.714-62.136-1.776.053-18.954 62.136 1.61z"/></g><path d="m139.282 167.4-90.608-2.59.053-18.597 90.608 2.347zm258.113-49.224-82.159-1.713.052-19.309 82.16 1.493z" fill="#DDD5E1"/><path d="m270.921 115.54-119.255-2.485.053-18.872 119.255 2.166zm152.647-53.621L182.29 58.76l.053-18.952 241.278 2.514z" fill="#fff"/><path d="m390.07 287.676-30.429-1.341.053-19.432 30.428 1.26z" fill="#DDD5E1"/></svg></g><g transform="translate(915.0 1047.0) rotate(0.0 143.0 58.5) scale(1.0056647760637718 1.001840989853149)"><svg width="284.389" height="116.785" viewBox="0 0 284.389 116.785"><path d="M232.661 116.725 48.386 107.58C21.509 106.247-.077 81.25 0 51.74.078 22.231 21.789-.923 48.667.028l184.274 6.525c28.406 1.006 51.525 26.653 51.448 57.278-.078 30.627-23.322 54.304-51.728 52.894z" fill="#3B114D"/><path d="M274.293 63.403c-.062 24.632-18.744 43.702-41.605 42.599-22.727-1.096-41.002-21.738-40.94-46.109s18.439-43.453 41.165-42.617c22.861.841 41.442 21.495 41.38 46.127z" fill="#fff"/></svg></g><g transform="translate(915.0 1176.0) rotate(0.0 144.0 61.0) scale(1.0127686210522242 1.0163617581392248)"><svg width="284.369" height="120.036" viewBox="0 0 284.369 120.036"><path d="M232.644 119.928 48.383 107.617C21.507 105.822-.077 80.452 0 50.942.078 21.432 21.788-1.351 48.663.062l184.261 9.691c28.404 1.494 51.521 27.54 51.444 58.166-.077 30.627-23.319 53.907-51.724 52.009z" fill="#e6e6e6"/><path d="M90.261 56.331c-.066 25.384-18.863 44.73-41.858 43.219C25.548 98.047 7.174 76.481 7.24 51.374S25.786 6.903 48.642 8.13c22.995 1.234 41.685 22.817 41.619 48.201z" fill="#fff"/></svg></g><g transform="translate(952.0 377.0) rotate(0.0 27.0 324.5) scale(1.054934750332109 1.0334082249103929)"><svg width="51.188" height="628.019" viewBox="0 0 51.188 628.019"><path d="M26.635.013c5.946-.304 10.76 4.747 10.743 11.284l-1.573 605.218c-.017 6.539-4.858 11.688-10.805 11.5-5.937-.188-10.729-5.626-10.712-12.147l1.574-603.503C15.878 5.847 20.698.317 26.635.013z" fill="#fff"/><path d="M25.393 477.267C11.307 477.102-.04 464.439 0 448.984l.085-32.402c.04-15.455 11.453-27.982 25.539-27.981 14.138.001 25.605 12.615 25.565 28.174l-.085 32.621c-.041 15.559-11.574 28.038-25.711 27.871z" fill="#3B114D"/></svg></g><g transform="translate(308.0 431.0) rotate(0.0 228.0 126.5) scale(0.9981044770238976 0.9984529898339332)"><svg width="456.866" height="253.392" viewBox="0 0 456.866 253.392"><g fill="#0f3336"><path d="M429.21 247.454a1 1 0 0 1-.014-2l25.014-.347.067-25.017a1 1 0 0 1 1-.997h.003a1 1 0 0 1 .997 1.003l-.07 26a1 1 0 0 1-.986.997l-25.998.36h-.014zm-344.754 4.781a1 1 0 0 1-.014-2l57.459-.797h.014a1 1 0 0 1 .014 2l-57.459.797zm114.918-1.594a1 1 0 0 1-.014-2l57.459-.796h.014a1 1 0 0 1 .014 2l-57.459.796zm114.918-1.593a1 1 0 0 1-.014-2l57.459-.797h.014a1 1 0 0 1 .014 2l-57.459.797zM1 253.392a1 1 0 0 1-1-1.003l.074-26a1 1 0 0 1 1-.997h.003a1 1 0 0 1 .997 1.003l-.071 24.983 24.981-.347h.014a1 1 0 0 1 .014 2l-25.998.36H1zm.243-85.328H1.24a1 1 0 0 1-.997-1.003l.169-59.328a1 1 0 0 1 1-.997h.003a1 1 0 0 1 .997 1.003l-.169 59.328a1 1 0 0 1-1 .997zm.339-118.655h-.003a1 1 0 0 1-.997-1.003l.074-26a.999.999 0 0 1 .953-.996l25.971-1.224a1.02 1.02 0 0 1 1.046.952 1 1 0 0 1-.952 1.046L2.653 23.363l-.071 25.049a1 1 0 0 1-1 .997zm83.511-29.933a1 1 0 0 1-.046-1.999l57.467-2.708c.522-.026 1.02.4 1.046.952a1 1 0 0 1-.952 1.046l-57.467 2.708h-.048zm114.934-5.417a1 1 0 0 1-.046-1.999l57.467-2.708c.529-.023 1.02.4 1.046.952a1 1 0 0 1-.952 1.046l-57.467 2.708h-.048zm114.934-5.417a1 1 0 0 1-.046-1.999l57.467-2.708c.519-.02 1.02.4 1.046.952a1 1 0 0 1-.952 1.046l-57.467 2.708h-.048zM455.796 28h-.003a1 1 0 0 1-.997-1.003l.067-24.949-24.921 1.175c-.533.012-1.02-.4-1.046-.952a1 1 0 0 1 .952-1.046L455.819 0c.267-.011.541.087.738.276s.309.452.309.726l-.07 26a1 1 0 0 1-1 .997zm-.346 128.729h-.002a1 1 0 0 1-.998-1.003l.173-64.364a1 1 0 0 1 1-.998h.002a1 1 0 0 1 .998 1.003l-.173 64.364a1 1 0 0 1-1 .997z"/></g></svg></g><g transform="translate(527.0 336.0) rotate(0.0 379.0 200.5) scale(0.9996597464187651 0.9983990757961673)"><svg width="758.258" height="401.643" viewBox="0 0 758.258 401.643"><path d="M756.274 395.98 1 400.643l.99-357.162L757.258 1z" fill="#fff"/><path d="M1 401.643a1 1 0 0 1-1-1.003L.99 43.478a1 1 0 0 1 .944-.996L757.202.002a.997.997 0 0 1 1.056 1.001l-.984 394.98a1 1 0 0 1-.994.997L1.006 401.643H1zM2.987 44.427l-.984 355.21 753.274-4.65.979-392.928zM756.274 395.98h.01z" fill="#172635"/><path d="m335.292 332.742-275.941 4.136.641-233.278 275.941-13.088z" fill="#3B114D"/><path d="M59.351 337.878a1 1 0 0 1-.665-1.747L335.268 89.765a1 1 0 1 1 1.33 1.494L60.016 337.625a.997.997 0 0 1-.665.253z" fill="#fff"/><path d="M335.291 333.742a.997.997 0 0 1-.639-.231L59.352 104.37a1 1 0 0 1 1.279-1.537l275.3 229.141a1 1 0 0 1-.64 1.768z" fill="#fff"/><path d="m574.745 99.271-207.438 9.299.052-20.026 207.439-9.852zm64.775 47.505-272.342 10.441.053-20.027 272.341-11.168z" fill="#DDD5E1"/><g fill="#172635"><path d="M367.043 209.328a1 1 0 0 1-.031-2l318.708-10.046a1 1 0 0 1 .063 1.999l-318.708 10.046-.032.001zm-.163 61.97a1 1 0 0 1-.022-2l318.708-7.412a1.01 1.01 0 0 1 1.023.977 1 1 0 0 1-.977 1.023l-318.708 7.412h-.024zm-.163 61.972a1.001 1.001 0 0 1-.015-2l318.709-4.778a1 1 0 0 1 .03 2l-318.709 4.778h-.015z"/></g></svg></g><g transform="translate(1149.0 711.0) rotate(0.0 49.5 53.5) scale(1.0115252574791564 1.0245116813481425)"><svg width="97.872" height="104.44" viewBox="0 0 97.872 104.44"><path d="M.15 3.654c6.095 18.421 26.19 79.001 33.49 99.043.861 2.363 4.003 2.311 4.787-.081l14.748-45.002c.258-.786.836-1.406 1.572-1.684l41.391-15.659c2.301-.871 2.317-4.319.024-5.183L3.395.158C1.387-.599-.563 1.5.15 3.654z" fill="#0f3336"/></svg></g></svg>